# xmcd
# 
# Track frame offsets:
#     150
#     17979
#     39662
#     61761
#     80867
#     102852
#     121431
#     141582
#     160577
#     180818
#     199800
#     218967
# 
# Disc length: 3203
# 
# Revision: 0
# Processed by: cddbd v1.5.2PL0 Copyright (c) Steve Scherf et al.
# Submitted via: fre:ac v1.0.31
# 
DISCID=a70c810c
DTITLE=任震昊 彭曉輝 - 不老情歌(國語版)
DYEAR=0
DGENRE=Country
TTITLE0=紅豆
TTITLE1=聽說愛情回來了
TTITLE2=你是如此難以忘記
TTITLE3=女人花
TTITLE4=筆不讓我的眼淚陪我過夜
TTITLE5=你為怎麼捨得我難過
TTITLE6=很愛很愛你
TTITLE7=味道
TTITLE8=哭砂
TTITLE9=愛如潮水
TTITLE10=夢醒時份
TTITLE11=讓我歡喜讓我優
EXTD=
EXTT0=
EXTT1=
EXTT2=
EXTT3=
EXTT4=
EXTT5=
EXTT6=
EXTT7=
EXTT8=
EXTT9=
EXTT10=
EXTT11=
PLAYORDER=
